#!OML:ASF H:\Terrain\Patient Classification 1\Walking\liu\liu.ASF
:FULLY-SPECIFIED
:DEGREES
145
root 8.57181 16.2483 -2.08574 7.06367 -3.19066 -4.46308
lowerback -4.54303 3.08354 0.291383
upperback -0.505821 4.03819 2.88268
thorax 1.83376 2.01243 3.04144
lowerneck -20.1302 -5.20069 -13.4228
upperneck 20.6991 -6.48964 13.6524
head 10.9265 -2.45527 6.25635
rclavicle -5.20567e-014 -2.50469e-014
rhumerus -20.7623 23.7532 -83.6658
rradius 54.272
rwrist -22.8157
rhand -34.2888 -20.6682
rfingers 7.12502
rthumb -7.4583 -50.5167
lclavicle -5.20567e-014 -2.50469e-014
lhumerus -59.3143 24.3999 49.936
lradius 7.47226
lwrist -37.6702
lhand -14.5713 -24.0812
lfingers 7.12502
lthumb 11.5782 5.57892
rfemur 17.6666 1.08022 25.0915
rtibia 18.3728
rfoot 5.8903 2.98758
rtoes -22.588
lfemur -43.4791 4.86059 -18.4007
ltibia 34.4088
lfoot -0.125904 2.58398
ltoes -11.4764
146
root 8.60237 16.2616 -1.84065 7.14937 -3.42343 -3.85723
lowerback -4.71361 3.14643 -0.274629
upperback -0.584154 4.15459 2.65397
thorax 1.81941 2.06803 3.13554
lowerneck -20.2613 -5.26991 -13.3437
upperneck 20.8321 -6.59934 13.608
head 11.0137 -2.49944 6.21327
rclavicle -8.44835e-015 -2.26615e-014
rhumerus -21.4638 23.3265 -84.0128
rradius 53.7211
rwrist -22.6238
rhand -34.8359 -22.0597
rfingers 7.12502
rthumb -7.98639 -51.8888
lclavicle -8.44835e-015 -2.26615e-014
lhumerus -59.2324 24.6836 49.7844
lradius 8.08433
lwrist -36.9614
lhand -13.155 -23.7472
lfingers 7.12502
lthumb 12.9438 5.83133
rfemur 15.671 0.405206 23.8574
rtibia 22.8138
rfoot 7.29145 2.91412
rtoes -22.7708
lfemur -43.3833 5.68663 -19.6153
ltibia 35.4638
lfoot -0.753065 1.23361
ltoes -10.5596
147
root 8.63819 16.2774 -1.60987 7.11444 -3.26395 -3.18176
lowerback -4.65933 2.97911 -0.906704
upperback -0.652943 3.96876 2.49601
thorax 1.69673 1.97383 3.30893
lowerneck -20.5572 -5.29436 -13.1568
upperneck 21.1491 -6.62111 13.3484
head 11.1732 -2.51385 6.08998
rclavicle -3.95085e-015 -2.46493e-014
rhumerus -22.1956 23.272 -84.3958
rradius 52.9961
rwrist -22.5177
rhand -34.8026 -23.9293
rfingers 7.12502
rthumb -7.95422 -53.7597
lclavicle -3.95085e-015 -2.46493e-014
lhumerus -59.2925 25.2646 49.545
lradius 8.44317
lwrist -36.8777
lhand -12.3123 -23.7048
lfingers 7.12502
lthumb 13.756 5.82048
rfemur 13.7283 -0.466047 22.6908
rtibia 27.1775
rfoot 8.56335 2.91325
rtoes -22.8483
lfemur -42.9852 6.02885 -20.8019
ltibia 36.1946
lfoot -1.05925 0.0315901
ltoes -8.25544
148
root 8.67746 16.2978 -1.37816 6.9086 -2.80748 -2.0246
lowerback -4.40687 2.71898 -1.94489
upperback -0.736341 3.67848 2.19579
thorax 1.44232 1.82885 3.54697
lowerneck -20.4645 -5.30231 -13.1323
upperneck 21.3174 -6.65632 13.3003
head 11.2203 -2.53671 6.06836
rclavicle -7.62836e-015 1.82882e-014
rhumerus -23.1452 23.1175 -84.8759
rradius 52.2207
rwrist -22.5417
rhand -34.6495 -23.7097
rfingers 7.12502
rthumb -7.80644 -53.5456
lclavicle -7.62836e-015 1.82882e-014
lhumerus -59.2972 25.7066 49.3197
lradius 8.68043
lwrist -37.1299
lhand -12.1094 -23.9781
lfingers 7.12502
lthumb 13.9516 5.53381
rfemur 12.0453 -1.68106 21.0391
rtibia 31.5161
rfoot 9.99961 2.69502
rtoes -21.7152
lfemur -42.0985 5.78243 -22.3665
ltibia 36.561
lfoot -1.53684 -0.532418
ltoes -6.27886
149
root 8.71549 16.3358 -1.13651 6.56806 -2.84183 -1.31994
lowerback -4.06273 2.72784 -2.45273
upperback -0.695277 3.71328 1.89095
thorax 1.27762 1.84671 3.49997
lowerneck -20.4951 -5.29948 -13.0063
upperneck 21.3024 -6.72538 13.4349
head 11.2329 -2.54081 6.08696
rclavicle -3.6154e-014 1.11319e-014
rhumerus -23.9246 22.7328 -85.3625
rradius 51.4264
rwrist -22.7166
rhand -35.1187 -22.7116
rfingers 7.12502
rthumb -8.25932 -52.5301
lclavicle -3.6154e-014 1.11319e-014
lhumerus -59.1052 25.9477 49.0947
lradius 9.11806
lwrist -37.5331
lhand -11.9168 -24.6112
lfingers 7.12502
lthumb 14.1372 4.88787
rfemur 10.4177 -2.061 20.016
rtibia 35.7621
rfoot 11.67 1.46649
rtoes -19.3505
lfemur -40.8209 5.71301 -23.2065
ltibia 36.6889
lfoot -2.20082 -0.527862
ltoes -4.83856
150
root 8.75431 16.3701 -0.909101 6.20312 -3.13171 -0.821963
lowerback -3.76039 2.8243 -2.73808
upperback -0.454123 3.85138 1.67384
thorax 1.34211 1.90993 3.43237
lowerneck -20.739 -5.34238 -13.0903
upperneck 20.9912 -6.77242 13.7144
head 11.1881 -2.52871 6.18952
rclavicle -2.23633e-014 9.54166e-015
rhumerus -24.1475 22.2374 -85.5817
rradius 50.4266
rwrist -22.5002
rhand -34.5037 -22.2612
rfingers 7.12502
rthumb -7.66578 -52.1023
lclavicle -2.23633e-014 9.54166e-015
lhumerus -58.7718 26.3756 48.9524
lradius 9.66283
lwrist -37.9769
lhand -11.7641 -25.2646
lfingers 7.12502
lthumb 14.2844 4.22405
rfemur 8.70858 -2.20719 19.1906
rtibia 39.9463
rfoot 13.1139 0.469638
rtoes -19.0402
lfemur -39.4708 6.04246 -23.8821
ltibia 36.5803
lfoot -2.83026 -0.742955
ltoes -3.63194
151
root 8.78435 16.3991 -0.70201 5.96853 -3.36941 -0.0718599
lowerback -3.5848 2.86956 -3.35816
upperback -0.180179 3.93742 1.44985
thorax 1.49316 1.94232 3.55092
lowerneck -20.9464 -5.52102 -13.3746
upperneck 20.5941 -6.9258 13.9382
head 11.1278 -2.58932 6.28312
rclavicle 7.53394e-014 4.37326e-015
rhumerus -24.1157 21.4922 -85.6921
rradius 49.2037
rwrist -22.0014
rhand -33.7587 -22.7317
rfingers 7.12502
rthumb -6.94662 -52.5977
lclavicle 7.53394e-014 4.37326e-015
lhumerus -58.2707 27.0303 48.946
lradius 10.0792
lwrist -38.2128
lhand -11.7763 -26.1146
lfingers 7.12502
lthumb 14.2725 3.37488
rfemur 6.74155 -2.45636 18.1729
rtibia 44.0992
rfoot 13.9579 -0.61571
rtoes -19.2601
lfemur -38.2488 6.43763 -24.8684
ltibia 36.287
lfoot -3.57509 -0.997749
ltoes -3.46245
152
root 8.80957 16.4297 -0.507542 5.97368 -3.47995 1.05352
lowerback -3.43066 2.81123 -4.46005
upperback -0.142274 3.90327 1.12671
thorax 1.3983 1.92026 3.82429
lowerneck -21.0918 -5.59291 -13.221
upperneck 20.4875 -6.97856 13.6668
head 11.1063 -2.62685 6.13617
rclavicle -1.36664e-014 -1.98785e-015
rhumerus -24.3674 20.8063 -86.0047
rradius 47.899
rwrist -21.7477
rhand -33.7274 -22.6952
rfingers 7.12502
rthumb -6.91638 -52.5622
lclavicle -1.36664e-014 -1.98785e-015
lhumerus -56.2447 25.3881 52.8699
lradius 10.6788
lwrist -34.6026
lhand -12.5164 -27.3265
lfingers 7.12502
lthumb 13.5594 2.21194
rfemur 4.43548 -2.73132 16.9276
rtibia 48.1898
rfoot 14.4436 -2.45841
rtoes -19.2155
lfemur -37.2238 6.67416 -26.2508
ltibia 35.8393
lfoot -4.35609 -1.27424
ltoes -3.55192
153
root 8.8416 16.4594 -0.304671 5.99991 -3.66305 2.11204
lowerback -3.2875 2.72625 -5.45656
upperback -0.265589 3.82189 0.819556
thorax 1.1552 1.88378 4.04861
lowerneck -20.9502 -5.44262 -12.8188
upperneck 20.4873 -6.78589 13.1744
head 11.0103 -2.568 5.90717
rclavicle -2.87492e-014 -1.11319e-014
rhumerus -25.117 20.3123 -86.5217
rradius 46.8192
rwrist -21.6546
rhand -33.8782 -21.9545
rfingers 7.12502
rthumb -7.06201 -51.8167
lclavicle -2.87492e-014 -1.11319e-014
lhumerus -54.5822 22.8955 57.1595
lradius 11.6613
lwrist -30.5078
lhand -13.3946 -28.3446
lfingers 7.12502
lthumb 12.7128 1.24843
rfemur 2.1254 -2.89202 15.7753
rtibia 52.1015
rfoot 14.533 -4.21731
rtoes -20.6735
lfemur -36.13 6.93681 -27.5697
ltibia 35.3237
lfoot -5.08346 -1.56475
ltoes -3.18747
154
root 8.87782 16.4926 -0.0889923 5.98325 -3.96801 2.80667
lowerback -3.43269 2.654 -6.00679
upperback -0.186446 3.76018 0.615356
thorax 1.30375 1.84341 4.15437
lowerneck -21.0236 -5.29221 -12.7072
upperneck 20.4518 -6.58161 13.118
head 10.9727 -2.47013 5.89883
rclavicle 1.16538e-014 -1.59028e-015
rhumerus -25.6091 19.8221 -86.91
rradius 45.8425
rwrist -21.386
rhand -34.3094 -23.7073
rfingers 7.12502
rthumb -7.47823 -53.5551
lclavicle 1.16538e-014 -1.59028e-015
lhumerus -52.6337 20.0414 61.7714
lradius 12.5479
lwrist -25.6501
lhand -13.7163 -28.1218
lfingers 7.12502
lthumb 12.4026 1.49027
rfemur -0.0838206 -2.99476 14.9529
rtibia 55.7105
rfoot 13.9134 -5.62969
rtoes -22.0297
lfemur -34.9458 7.10099 -28.4396
ltibia 34.8214
lfoot -5.76789 -1.4993
ltoes -2.40169
155
root 8.90625 16.5293 0.112569 5.99149 -4.13052 3.13498
lowerback -3.51601 2.56498 -6.22984
upperback -0.0160905 3.66253 0.533667
thorax 1.52956 1.78143 4.20213
lowerneck -21.5086 -5.22981 -12.756
upperneck 20.4755 -6.46953 13.3059
head 11.0664 -2.3852 6.00077
rclavicle -5.71506e-016 1.07344e-014
rhumerus -25.6787 19.3436 -87.144
rradius 44.6152
rwrist -21.1295
rhand -35.0759 -27.1638
rfingers 7.12502
rthumb -8.218 -56.984
lclavicle -5.71506e-016 1.07344e-014
lhumerus -50.8379 18.1822 65.23
lradius 13.2401
lwrist -22.3023
lhand -14.0831 -28.0034
lfingers 7.12502
lthumb 12.049 1.62975
rfemur -2.22088 -3.13501 14.6567
rtibia 58.9683
rfoot 12.7111 -7.86509
rtoes -18.9046
lfemur -33.9179 7.00095 -28.8001
ltibia 34.4311
lfoot -6.39733 -1.23456
ltoes -1.98185
156
root 8.92705 16.5683 0.295447 6.04181 -4.05248 3.24316
lowerback -3.24482 2.43023 -6.28711
upperback -0.0826928 3.46415 0.535112
thorax 1.32843 1.69048 4.21278
lowerneck -21.8162 -5.1623 -12.8062
upperneck 20.597 -6.36409 13.4304
head 11.1605 -2.31668 6.08206
rclavicle 4.45526e-014 5.1684e-015
rhumerus -26.1357 19.0908 -87.5586
rradius 43.3604
rwrist -21.4212
rhand -36.0731 -28.9518
rfingers 7.12502
rthumb -9.18036 -58.732
lclavicle 4.45526e-014 5.1684e-015
lhumerus -49.4709 16.1307 68.4486
lradius 14.0226
lwrist -19.1195
lhand -14.6253 -28.1377
lfingers 7.12502
lthumb 11.5262 1.52541
rfemur -4.17977 -3.17837 14.7563
rtibia 61.8736
rfoot 10.1911 -10.7707
rtoes -11.1121
lfemur -33.0456 7.00762 -28.9575
ltibia 34.1327
lfoot -6.9748 -1.3307
ltoes -1.87741
157
root 8.95599 16.6134 0.482548 6.13596 -3.91834 3.02227
lowerback -2.99484 2.29655 -5.8912
upperback -0.205097 3.25064 0.599824
thorax 1.10497 1.59631 4.03596
lowerneck -21.7939 -5.03405 -12.7924
upperneck 20.62 -6.17688 13.3772
head 11.1323 -2.2376 6.09148
rclavicle 9.26834e-015 4.77083e-015
rhumerus -26.7655 18.7832 -87.9819
rradius 41.9812
rwrist -21.5841
rhand -36.4577 -27.9103
rfingers 7.12502
rthumb -9.55144 -57.6738
lclavicle 9.26834e-015 4.77083e-015
lhumerus -48.1198 13.1421 72.0698
lradius 14.9287
lwrist -15.1306
lhand -15.0657 -28.171
lfingers 7.12502
lthumb 11.1014 1.51536
rfemur -6.14845 -3.22703 15.2348
rtibia 64.3899
rfoot 7.12677 -12.6362
rtoes -7.27637
lfemur -32.1933 7.22304 -28.8425
ltibia 33.8297
lfoot -7.49252 -1.62667
ltoes -1.12352
158
root 8.9944 16.6665 0.680829 6.26921 -3.89612 2.58353
lowerback -2.96344 2.21105 -5.16257
upperback -0.234519 3.10851 0.70975
thorax 1.10537 1.52927 3.73557
lowerneck -21.6345 -4.9439 -12.6685
upperneck 20.5309 -6.00902 13.028
head 11.0241 -2.19715 5.9574
rclavicle -2.53202e-014 -8.34896e-015
rhumerus -27.2479 18.1235 -88.1648
rradius 40.5168
rwrist -21.1702
rhand -35.9379 -25.6424
rfingers 7.12502
rthumb -9.04987 -55.4283
lclavicle -2.53202e-014 -8.34896e-015
lhumerus -46.8381 10.5356 75.1292
lradius 15.7879
lwrist -12.3139
lhand -15.4927 -27.9628
lfingers 7.12502
lthumb 10.6896 1.74531
rfemur -8.27932 -3.35482 15.9474
rtibia 66.4796
rfoot 5.22792 -13.8047
rtoes -9.16178
lfemur -31.2675 7.28079 -28.4385
ltibia 33.4025
lfoot -8.01463 -1.63975
ltoes -0.471374
159
root 9.02384 16.7167 0.879711 6.42532 -3.94852 2.2878
lowerback -2.94651 2.07162 -4.75566
upperback -0.313647 2.90526 0.825532
thorax 1.04917 1.43254 3.61861
lowerneck -21.7311 -4.87237 -12.457
upperneck 20.7399 -5.89248 12.6678
head 11.0805 -2.16634 5.80946
rclavicle -3.88873e-014 -3.18055e-015
rhumerus -27.953 17.426 -88.3935
rradius 39.3734
rwrist -20.7025
rhand -35.7899 -24.6812
rfingers 7.12502
rthumb -8.90705 -54.4732
lclavicle -3.88873e-014 -3.18055e-015
lhumerus -45.8802 8.84385 77.2788
lradius 16.6232
lwrist -10.8661
lhand -15.3424 -27.713
lfingers 7.12502
lthumb 10.8345 1.98755
rfemur -10.4131 -3.44368 16.5587
rtibia 68.2246
rfoot 4.08697 -14.6652
rtoes -12.0016
lfemur -30.2103 7.16982 -28.1166
ltibia 32.7121
lfoot -8.55911 -1.52963
ltoes -1.08341
